<svg xmlns="http://www.w3.org/2000/svg" xmlns:xlink="http://www.w3.org/1999/xlink" width="500" zoomAndPan="magnify" viewBox="0 0 375 374.999991" height="500" preserveAspectRatio="xMidYMid meet" version="1.0"><defs><g/></defs><rect x="-37.5" width="450" fill="#ffffff" y="-37.499999" height="449.999989" fill-opacity="1"/><rect x="-37.5" width="450" fill="#f0e491" y="-37.499999" height="449.999989" fill-opacity="1"/><g fill="#31694e" fill-opacity="1"><g transform="translate(139.453938, 233.249985)"><g><path d="M 57.09375 -8.265625 C 57.09375 -5.242188 56.144531 -2.945312 54.25 -1.375 C 52.351562 0.1875 50.328125 0.96875 48.171875 0.96875 C 46.003906 0.96875 43.945312 0.1875 42 -1.375 C 40.0625 -2.945312 39.09375 -5.242188 39.09375 -8.265625 L 39.09375 -47.03125 L 18 -47.03125 L 18 -8.265625 C 18 -5.242188 17.050781 -2.945312 15.15625 -1.375 C 13.269531 0.1875 11.191406 0.96875 8.921875 0.96875 C 6.648438 0.96875 4.59375 0.210938 2.75 -1.296875 C 0.914062 -2.804688 0 -5.128906 0 -8.265625 L 0 -105.421875 C 0 -108.234375 0.972656 -110.445312 2.921875 -112.0625 C 4.867188 -113.6875 6.921875 -114.5 9.078125 -114.5 C 11.347656 -114.5 13.398438 -113.769531 15.234375 -112.3125 C 17.078125 -110.851562 18 -108.554688 18 -105.421875 L 18 -64.71875 L 39.09375 -64.71875 L 39.09375 -105.421875 C 39.09375 -108.554688 40.035156 -110.851562 41.921875 -112.3125 C 43.816406 -113.769531 45.789062 -114.5 47.84375 -114.5 C 50.332031 -114.5 52.492188 -113.6875 54.328125 -112.0625 C 56.171875 -110.445312 57.09375 -108.234375 57.09375 -105.421875 Z M 57.09375 -8.265625 "/></g></g></g><g fill="#31694e" fill-opacity="1"><g transform="translate(192.163579, 233.249985)"><g><path d="M 17.1875 22.546875 C 17.1875 25.460938 16.296875 27.625 14.515625 29.03125 C 12.734375 30.4375 10.757812 31.140625 8.59375 31.140625 C 6.539062 31.140625 4.539062 30.4375 2.59375 29.03125 C 0.644531 27.625 -0.328125 25.460938 -0.328125 22.546875 L -0.328125 -51.578125 C -0.328125 -56.441406 0.859375 -60.925781 3.234375 -65.03125 C 5.617188 -69.144531 8.785156 -72.441406 12.734375 -74.921875 C 16.679688 -77.410156 21.140625 -78.65625 26.109375 -78.65625 C 31.191406 -78.65625 35.734375 -77.46875 39.734375 -75.09375 C 43.734375 -72.71875 46.894531 -69.523438 49.21875 -65.515625 C 51.550781 -61.515625 52.71875 -57.082031 52.71875 -52.21875 L 52.71875 -25.46875 C 52.71875 -20.707031 51.582031 -16.40625 49.3125 -12.5625 C 47.039062 -8.726562 43.898438 -5.675781 39.890625 -3.40625 C 35.890625 -1.132812 31.296875 0 26.109375 0 L 20.59375 0 L 20.59375 -14.4375 L 26.109375 -14.4375 C 28.703125 -14.4375 30.914062 -15.4375 32.75 -17.4375 C 34.59375 -19.4375 35.515625 -21.679688 35.515625 -24.171875 L 35.515625 -52.21875 C 35.515625 -54.707031 34.59375 -56.84375 32.75 -58.625 C 30.914062 -60.414062 28.703125 -61.3125 26.109375 -61.3125 C 23.515625 -61.3125 21.378906 -60.363281 19.703125 -58.46875 C 18.023438 -56.570312 17.1875 -54.273438 17.1875 -51.578125 Z M 17.1875 22.546875 "/></g></g></g></svg>